<mxfile host="app.diagrams.net" modified="2022-03-15T00:50:41.441Z" agent="5.0 (Windows NT 10.0; Win64; x64) AppleWebKit/537.36 (KHTML, like Gecko) Chrome/99.0.4844.51 Safari/537.36" etag="8hUT6MjxSONyWYruClGy" version="17.1.2" type="github">
  <diagram id="L9dHS3RSsunlJip9Qhri" name="Page-1">
    <mxGraphModel dx="1422" dy="754" grid="1" gridSize="10" guides="1" tooltips="1" connect="1" arrows="1" fold="1" page="1" pageScale="1" pageWidth="850" pageHeight="1100" math="0" shadow="0">
      <root>
        <mxCell id="0" />
        <mxCell id="1" parent="0" />
        <mxCell id="ADCb1g6xV7SkuzcQprg9-1" value="" style="whiteSpace=wrap;html=1;aspect=fixed;" vertex="1" parent="1">
          <mxGeometry x="170" y="70" width="410" height="410" as="geometry" />
        </mxCell>
        <mxCell id="ADCb1g6xV7SkuzcQprg9-2" value="&amp;nbsp; &amp;nbsp; &amp;nbsp; &amp;nbsp; &amp;nbsp;" style="rounded=0;whiteSpace=wrap;html=1;" vertex="1" parent="1">
          <mxGeometry x="200" y="100" width="310" height="80" as="geometry" />
        </mxCell>
        <mxCell id="ADCb1g6xV7SkuzcQprg9-4" value="&lt;b&gt;&lt;font style=&quot;font-size: 18px&quot;&gt;1&lt;/font&gt;&lt;/b&gt;" style="text;html=1;strokeColor=none;fillColor=none;align=center;verticalAlign=middle;whiteSpace=wrap;rounded=0;" vertex="1" parent="1">
          <mxGeometry x="240" y="125" width="40" height="30" as="geometry" />
        </mxCell>
        <mxCell id="ADCb1g6xV7SkuzcQprg9-5" value="&lt;span style=&quot;font-size: 18px&quot;&gt;&lt;b&gt;2&lt;/b&gt;&lt;/span&gt;" style="text;html=1;strokeColor=none;fillColor=none;align=center;verticalAlign=middle;whiteSpace=wrap;rounded=0;" vertex="1" parent="1">
          <mxGeometry x="330" y="125" width="40" height="30" as="geometry" />
        </mxCell>
        <mxCell id="ADCb1g6xV7SkuzcQprg9-6" value="&lt;span style=&quot;font-size: 18px&quot;&gt;&lt;b&gt;3&lt;/b&gt;&lt;/span&gt;" style="text;html=1;strokeColor=none;fillColor=none;align=center;verticalAlign=middle;whiteSpace=wrap;rounded=0;" vertex="1" parent="1">
          <mxGeometry x="430" y="125" width="40" height="30" as="geometry" />
        </mxCell>
        <mxCell id="ADCb1g6xV7SkuzcQprg9-7" value="&amp;nbsp; &amp;nbsp; &amp;nbsp; &amp;nbsp; &amp;nbsp;" style="rounded=0;whiteSpace=wrap;html=1;" vertex="1" parent="1">
          <mxGeometry x="200" y="220" width="310" height="80" as="geometry" />
        </mxCell>
        <mxCell id="ADCb1g6xV7SkuzcQprg9-8" value="&amp;nbsp; &amp;nbsp; &amp;nbsp; &amp;nbsp; &amp;nbsp;" style="rounded=0;whiteSpace=wrap;html=1;" vertex="1" parent="1">
          <mxGeometry x="200" y="330" width="310" height="80" as="geometry" />
        </mxCell>
        <mxCell id="ADCb1g6xV7SkuzcQprg9-9" value="&lt;span style=&quot;font-size: 18px&quot;&gt;&lt;b&gt;4&lt;/b&gt;&lt;/span&gt;" style="text;html=1;strokeColor=none;fillColor=none;align=center;verticalAlign=middle;whiteSpace=wrap;rounded=0;" vertex="1" parent="1">
          <mxGeometry x="430" y="240" width="40" height="30" as="geometry" />
        </mxCell>
        <mxCell id="ADCb1g6xV7SkuzcQprg9-10" value="&lt;span style=&quot;font-size: 18px&quot;&gt;&lt;b&gt;5&lt;/b&gt;&lt;/span&gt;" style="text;html=1;strokeColor=none;fillColor=none;align=center;verticalAlign=middle;whiteSpace=wrap;rounded=0;" vertex="1" parent="1">
          <mxGeometry x="430" y="350" width="40" height="30" as="geometry" />
        </mxCell>
        <mxCell id="ADCb1g6xV7SkuzcQprg9-12" value="&lt;span style=&quot;font-size: 18px&quot;&gt;&lt;b&gt;7&lt;/b&gt;&lt;/span&gt;" style="text;html=1;strokeColor=none;fillColor=none;align=center;verticalAlign=middle;whiteSpace=wrap;rounded=0;" vertex="1" parent="1">
          <mxGeometry x="240" y="355" width="40" height="30" as="geometry" />
        </mxCell>
        <mxCell id="ADCb1g6xV7SkuzcQprg9-13" value="&lt;span style=&quot;font-size: 18px&quot;&gt;&lt;b&gt;9&lt;/b&gt;&lt;/span&gt;" style="text;html=1;strokeColor=none;fillColor=none;align=center;verticalAlign=middle;whiteSpace=wrap;rounded=0;" vertex="1" parent="1">
          <mxGeometry x="330" y="245" width="40" height="30" as="geometry" />
        </mxCell>
        <mxCell id="ADCb1g6xV7SkuzcQprg9-14" value="&lt;span style=&quot;font-size: 18px&quot;&gt;&lt;b&gt;8&lt;/b&gt;&lt;/span&gt;" style="text;html=1;strokeColor=none;fillColor=none;align=center;verticalAlign=middle;whiteSpace=wrap;rounded=0;" vertex="1" parent="1">
          <mxGeometry x="240" y="240" width="40" height="30" as="geometry" />
        </mxCell>
        <mxCell id="ADCb1g6xV7SkuzcQprg9-15" value="&lt;span style=&quot;font-size: 18px&quot;&gt;&lt;b&gt;6&lt;/b&gt;&lt;/span&gt;" style="text;html=1;strokeColor=none;fillColor=none;align=center;verticalAlign=middle;whiteSpace=wrap;rounded=0;" vertex="1" parent="1">
          <mxGeometry x="330" y="360" width="40" height="30" as="geometry" />
        </mxCell>
        <mxCell id="ADCb1g6xV7SkuzcQprg9-16" value="" style="endArrow=none;dashed=1;html=1;rounded=0;fontSize=18;exitX=0.816;exitY=1;exitDx=0;exitDy=0;exitPerimeter=0;" edge="1" parent="1" source="ADCb1g6xV7SkuzcQprg9-8">
          <mxGeometry width="50" height="50" relative="1" as="geometry">
            <mxPoint x="560" y="410" as="sourcePoint" />
            <mxPoint x="450" y="40" as="targetPoint" />
            <Array as="points">
              <mxPoint x="453" y="440" />
              <mxPoint x="450" y="90" />
            </Array>
          </mxGeometry>
        </mxCell>
        <mxCell id="ADCb1g6xV7SkuzcQprg9-17" value="" style="endArrow=none;dashed=1;html=1;rounded=0;fontSize=18;exitX=0.816;exitY=1;exitDx=0;exitDy=0;exitPerimeter=0;" edge="1" parent="1">
          <mxGeometry width="50" height="50" relative="1" as="geometry">
            <mxPoint x="261.46000000000004" y="425" as="sourcePoint" />
            <mxPoint x="258.5" y="55" as="targetPoint" />
            <Array as="points">
              <mxPoint x="261.5" y="455" />
              <mxPoint x="258.5" y="105" />
            </Array>
          </mxGeometry>
        </mxCell>
        <mxCell id="ADCb1g6xV7SkuzcQprg9-18" value="" style="endArrow=none;dashed=1;html=1;rounded=0;fontSize=18;" edge="1" parent="1">
          <mxGeometry width="50" height="50" relative="1" as="geometry">
            <mxPoint x="100" y="370" as="sourcePoint" />
            <mxPoint x="610" y="370" as="targetPoint" />
          </mxGeometry>
        </mxCell>
        <mxCell id="ADCb1g6xV7SkuzcQprg9-19" value="" style="endArrow=none;dashed=1;html=1;rounded=0;fontSize=18;" edge="1" parent="1">
          <mxGeometry width="50" height="50" relative="1" as="geometry">
            <mxPoint x="95" y="135" as="sourcePoint" />
            <mxPoint x="605" y="125" as="targetPoint" />
          </mxGeometry>
        </mxCell>
        <mxCell id="ADCb1g6xV7SkuzcQprg9-20" value="row=0" style="text;html=1;align=center;verticalAlign=middle;resizable=0;points=[];autosize=1;strokeColor=none;fillColor=none;fontSize=18;" vertex="1" parent="1">
          <mxGeometry x="35" y="125" width="70" height="30" as="geometry" />
        </mxCell>
        <mxCell id="ADCb1g6xV7SkuzcQprg9-21" value="row=end" style="text;html=1;align=center;verticalAlign=middle;resizable=0;points=[];autosize=1;strokeColor=none;fillColor=none;fontSize=18;" vertex="1" parent="1">
          <mxGeometry x="20" y="355" width="90" height="30" as="geometry" />
        </mxCell>
        <mxCell id="ADCb1g6xV7SkuzcQprg9-22" value="column=0" style="text;html=1;align=center;verticalAlign=middle;resizable=0;points=[];autosize=1;strokeColor=none;fillColor=none;fontSize=18;" vertex="1" parent="1">
          <mxGeometry x="205" y="15" width="90" height="30" as="geometry" />
        </mxCell>
        <mxCell id="ADCb1g6xV7SkuzcQprg9-23" value="column=end" style="text;html=1;align=center;verticalAlign=middle;resizable=0;points=[];autosize=1;strokeColor=none;fillColor=none;fontSize=18;" vertex="1" parent="1">
          <mxGeometry x="385" y="15" width="110" height="30" as="geometry" />
        </mxCell>
      </root>
    </mxGraphModel>
  </diagram>
</mxfile>
